<svg version="1.1" id="Layer_1" xmlns="http://www.w3.org/2000/svg" xmlns:xlink="http://www.w3.org/1999/xlink" x="0px" y="0px" viewBox="0 0 841.9 595.3" style="enable-background:new 0 0 841.9 595.3; " xml:space="preserve">
	<path d="M477.6,300l215-215c15.6-15.6,15.6-40.9,0-56.6s-40.9-15.6-56.6,0l-215,215l-215-215c-15.6-15.6-40.9-15.6-56.6,0 s-15.6,40.9,0,56.6l215,215l-215,215c-15.6,15.6-15.6,40.9,0,56.6c7.8,7.8,18,11.7,28.3,11.7s20.5-3.9,28.3-11.7l215-215l215,215 c7.8,7.8,18,11.7,28.3,11.7s20.5-3.9,28.3-11.7c15.6-15.6,15.6-40.9,0-56.6L477.6,300z"/>
</svg>
